<?xml version="1.0" encoding="utf-8"?>
		<!-- Generator: Adobe Illustrator 22.0.1, SVG Export Plug-In . SVG Version: 6.00 Build 0)  -->
<svg version="1.1" id="Capa_1" xmlns="http://www.w3.org/2000/svg" xmlns:xlink="http://www.w3.org/1999/xlink" x="0px" y="0px"
	 viewBox="0 0 51.7 51.6" style="enable-background:new 0 0 51.7 51.6;" xml:space="preserve">
<style type="text/css">
	.st0{fill:none;stroke:#FFFFFF;stroke-width:2;stroke-linecap:round;stroke-miterlimit:10;}
	.st1{fill:none;stroke:#FFFFFF;stroke-width:2.5;stroke-miterlimit:10;}
	.st2{fill:none;stroke:#FFFFFF;stroke-width:2.5;stroke-linecap:round;stroke-miterlimit:10;}
</style>
<line class="st0" x1="17.3" y1="5.1" x2="20.7" y2="13.3"/>
<line class="st0" x1="5.2" y1="17.2" x2="13.4" y2="20.6"/>
<line class="st0" x1="5.2" y1="34.4" x2="13.4" y2="31"/>
<line class="st0" x1="17.3" y1="46.5" x2="20.7" y2="38.3"/>
<line class="st0" x1="34.4" y1="46.5" x2="31" y2="38.3"/>
<line class="st0" x1="46.5" y1="34.4" x2="38.3" y2="31"/>
<line class="st0" x1="46.5" y1="17.2" x2="38.3" y2="20.6"/>
<line class="st0" x1="34.4" y1="5.1" x2="31" y2="13.3"/>
<circle class="st1" cx="25.8" cy="25.9" r="9.5"/>
<line class="st2" x1="25.8" y1="1.3" x2="25.8" y2="12.3"/>
<line class="st2" x1="8.5" y1="8.5" x2="16.3" y2="16.3"/>
<line class="st2" x1="1.3" y1="25.8" x2="12.3" y2="25.8"/>
<line class="st2" x1="8.5" y1="43.1" x2="16.3" y2="35.4"/>
<line class="st2" x1="25.8" y1="50.3" x2="25.8" y2="39.3"/>
<line class="st2" x1="43.2" y1="43.1" x2="35.4" y2="35.4"/>
<line class="st2" x1="50.4" y1="25.8" x2="39.3" y2="25.8"/>
<line class="st2" x1="43.2" y1="8.5" x2="35.4" y2="16.3"/>
<line class="st2" x1="25.8" y1="3.4" x2="25.8" y2="12.3"/>
<line class="st2" x1="10" y1="10" x2="16.3" y2="16.3"/>
<line class="st2" x1="3.4" y1="25.8" x2="12.3" y2="25.8"/>
<line class="st2" x1="10" y1="41.6" x2="16.3" y2="35.4"/>
<line class="st2" x1="25.8" y1="48.2" x2="25.8" y2="39.3"/>
<line class="st2" x1="41.7" y1="41.6" x2="35.4" y2="35.4"/>
<line class="st2" x1="48.2" y1="25.8" x2="39.3" y2="25.8"/>
<line class="st2" x1="41.7" y1="10" x2="35.4" y2="16.3"/>
</svg>
